<?xml version="1.0" encoding="UTF-8" standalone="no"?>
<!-- Created with Inkscape (http://www.inkscape.org/) -->

<svg
   xmlns:dc="http://purl.org/dc/elements/1.1/"
   xmlns:cc="http://creativecommons.org/ns#"
   xmlns:rdf="http://www.w3.org/1999/02/22-rdf-syntax-ns#"
   xmlns:svg="http://www.w3.org/2000/svg"
   xmlns="http://www.w3.org/2000/svg"
   xmlns:sodipodi="http://sodipodi.sourceforge.net/DTD/sodipodi-0.dtd"
   xmlns:inkscape="http://www.inkscape.org/namespaces/inkscape"
   id="svg2"
   version="1.1"
   inkscape:version="0.48.3.1 r9886"
   width="539.11749"
   height="210.92751"
   xml:space="preserve"
   sodipodi:docname="rightshift.original.pdf"><metadata
     id="metadata8"><rdf:RDF><cc:Work
         rdf:about=""><dc:format>image/svg+xml</dc:format><dc:type
           rdf:resource="http://purl.org/dc/dcmitype/StillImage" /><dc:title></dc:title></cc:Work></rdf:RDF></metadata><defs
     id="defs6"><clipPath
       clipPathUnits="userSpaceOnUse"
       id="clipPath16"><path
         d="m 105.554,383.233 c -11.22,0 -20.309,-9.1 -20.309,-20.303 l 0,0 0,-125.635 c 0,-11.24 9.089,-20.301 20.309,-20.301 l 0,0 388.192,0 c 11.2,0 20.291,9.061 20.291,20.301 l 0,0 0,125.635 c 0,11.203 -9.091,20.303 -20.291,20.303 l 0,0 -388.192,0 z"
         id="path18"
         inkscape:connector-curvature="0" /></clipPath><linearGradient
       x1="0"
       y1="0"
       x2="1"
       y2="0"
       gradientUnits="userSpaceOnUse"
       gradientTransform="matrix(80.185211,-262.27405,-262.27405,-80.185211,259.54736,431.24658)"
       spreadMethod="pad"
       id="linearGradient24"><stop
         style="stop-opacity:1;stop-color:#ffffff"
         offset="0"
         id="stop26" /><stop
         style="stop-opacity:1;stop-color:#bbbdbf"
         offset="1"
         id="stop28" /></linearGradient><clipPath
       clipPathUnits="userSpaceOnUse"
       id="clipPath36"><path
         d="M 0,600 600,600 600,0 0,0 0,600 z"
         id="path38"
         inkscape:connector-curvature="0" /></clipPath><clipPath
       clipPathUnits="userSpaceOnUse"
       id="clipPath48"><path
         d="m 106.107,377.402 c -8.39,0 -15.216,-6.819 -15.216,-15.232 l 0,0 0,-124.148 c 0,-8.368 6.826,-15.199 15.216,-15.199 l 0,0 387.052,0 c 8.406,0 15.249,6.831 15.249,15.199 l 0,0 0,124.148 c 0,8.413 -6.843,15.232 -15.249,15.232 l 0,0 -387.052,0 z"
         id="path50"
         inkscape:connector-curvature="0" /></clipPath><linearGradient
       x1="0"
       y1="0"
       x2="1"
       y2="0"
       gradientUnits="userSpaceOnUse"
       gradientTransform="matrix(0,-154.58008,-154.58008,0,299.64893,377.40283)"
       spreadMethod="pad"
       id="linearGradient56"><stop
         style="stop-opacity:1;stop-color:#ffffff"
         offset="0"
         id="stop58" /><stop
         style="stop-opacity:1;stop-color:#e6e7e8"
         offset="1"
         id="stop60" /></linearGradient><clipPath
       clipPathUnits="userSpaceOnUse"
       id="clipPath68"><path
         d="M 0,600 600,600 600,0 0,0 0,600 z"
         id="path70"
         inkscape:connector-curvature="0" /></clipPath></defs><sodipodi:namedview
     pagecolor="#ffffff"
     bordercolor="#666666"
     borderopacity="1"
     objecttolerance="10"
     gridtolerance="10"
     guidetolerance="10"
     inkscape:pageopacity="0"
     inkscape:pageshadow="2"
     inkscape:window-width="1918"
     inkscape:window-height="1078"
     id="namedview4"
     showgrid="false"
     fit-margin-top="0"
     fit-margin-left="0"
     fit-margin-right="0"
     fit-margin-bottom="0"
     inkscape:zoom="1.2586667"
     inkscape:cx="74.848467"
     inkscape:cy="16.420078"
     inkscape:window-x="1366"
     inkscape:window-y="0"
     inkscape:window-maximized="0"
     inkscape:current-layer="g10" /><g
     id="g10"
     inkscape:groupmode="layer"
     inkscape:label="rightshift.original"
     transform="matrix(1.25,0,0,-1.25,-104.99262,480.60488)"><g
       id="g12"><g
         id="g14"
         clip-path="url(#clipPath16)"><g
           id="g20"><g
             id="g22"><path
               d="m 105.554,383.233 c -11.22,0 -20.309,-9.1 -20.309,-20.303 l 0,0 0,-125.635 c 0,-11.24 9.089,-20.301 20.309,-20.301 l 0,0 388.192,0 c 11.2,0 20.291,9.061 20.291,20.301 l 0,0 0,125.635 c 0,11.203 -9.091,20.303 -20.291,20.303 l 0,0 -388.192,0 z"
               style="fill:url(#linearGradient24);stroke:none"
               id="path30"
               inkscape:connector-curvature="0" /></g></g></g></g><g
       id="g32"><g
         id="g34"
         clip-path="url(#clipPath36)"><g
           id="g40"
           transform="translate(514.0371,237.2949)"><path
             d="m 0,0 c 0,-11.24 -9.091,-20.302 -20.291,-20.302 l -388.192,0 c -11.22,0 -20.309,9.062 -20.309,20.302 l 0,125.635 c 0,11.202 9.089,20.303 20.309,20.303 l 388.192,0 C -9.091,145.938 0,136.837 0,125.635 L 0,0 z"
             style="fill:none;stroke:#6d6e70;stroke-width:2.50200009;stroke-linecap:butt;stroke-linejoin:round;stroke-miterlimit:4;stroke-opacity:1;stroke-dasharray:none"
             id="path42"
             inkscape:connector-curvature="0" /></g></g></g><g
       id="g44"><g
         id="g46"
         clip-path="url(#clipPath48)"><g
           id="g52"><g
             id="g54"><path
               d="m 106.107,377.402 c -8.39,0 -15.216,-6.819 -15.216,-15.232 l 0,0 0,-124.148 c 0,-8.368 6.826,-15.199 15.216,-15.199 l 0,0 387.052,0 c 8.406,0 15.249,6.831 15.249,15.199 l 0,0 0,124.148 c 0,8.413 -6.843,15.232 -15.249,15.232 l 0,0 -387.052,0 z"
               style="fill:url(#linearGradient56);stroke:none"
               id="path62"
               inkscape:connector-curvature="0" /></g></g></g></g><g
       id="g64"><g
         id="g66"
         clip-path="url(#clipPath68)"><g
           id="g72"
           transform="translate(508.4082,238.0225)"><path
             d="m 0,0 c 0,-8.368 -6.844,-15.199 -15.249,-15.199 l -387.052,0 c -8.391,0 -15.217,6.831 -15.217,15.199 l 0,124.147 c 0,8.414 6.826,15.233 15.217,15.233 l 387.052,0 C -6.844,139.38 0,132.561 0,124.147 L 0,0 z"
             style="fill:none;stroke:#f1f1f2;stroke-width:2.50200009;stroke-linecap:butt;stroke-linejoin:round;stroke-miterlimit:4;stroke-opacity:1;stroke-dasharray:none"
             id="path74"
             inkscape:connector-curvature="0" /></g><g
           id="g76"
           transform="translate(443.2324,276.9795)"><path
             d="m 0,0 0.137,-19.374 21.96,0.135 0.067,-9.851 L 37.678,-9.446 21.962,9.99 21.826,-0.077 0,0 z m -2.219,2.477 21.95,0 0.141,13.908 20.71,-25.904 -20.851,-26.312 0,14.249 -22.032,-0.157 0.082,24.216 z"
             style="fill:#404041;fill-opacity:1;fill-rule:nonzero;stroke:none"
             id="path78"
             inkscape:connector-curvature="0" /></g></g></g><text
       transform="matrix(1,0,0,-1,218.7471,249.4595)"
       id="text80"><tspan
         style="font-size:54px;font-variant:normal;font-weight:300;font-stretch:normal;writing-mode:lr-tb;fill:#006093;fill-opacity:1;fill-rule:nonzero;stroke:none;font-family:VAG Rounded Std Light;-inkscape-font-specification:VAGRoundedStd-Light"
         x="0 17.01 28.025999 58.049999 87.101997"
         y="0"
         sodipodi:role="line"
         id="tspan82">right</tspan><tspan
         style="font-size:54px;font-variant:normal;font-weight:300;font-stretch:normal;writing-mode:lr-tb;fill:#404041;fill-opacity:1;fill-rule:nonzero;stroke:none;font-family:VAG Rounded Std Light;-inkscape-font-specification:VAGRoundedStd-Light"
         x="106.542 130.51801 159.57001 171.936 188.62199"
         y="0"
         sodipodi:role="line"
         id="tspan84">shift</tspan></text>
</g></svg>