<?xml version="1.0" encoding="UTF-8" standalone="no"?>
<!-- Created with Inkscape (http://www.inkscape.org/) -->

<svg
   xmlns:dc="http://purl.org/dc/elements/1.1/"
   xmlns:cc="http://creativecommons.org/ns#"
   xmlns:rdf="http://www.w3.org/1999/02/22-rdf-syntax-ns#"
   xmlns:svg="http://www.w3.org/2000/svg"
   xmlns="http://www.w3.org/2000/svg"
   xmlns:sodipodi="http://sodipodi.sourceforge.net/DTD/sodipodi-0.dtd"
   xmlns:inkscape="http://www.inkscape.org/namespaces/inkscape"
   id="svg2"
   version="1.1"
   inkscape:version="0.48.3.1 r9886"
   width="426.08926"
   height="163.02374"
   xml:space="preserve"
   sodipodi:docname="rsaweb.original.pdf"><metadata
     id="metadata8"><rdf:RDF><cc:Work
         rdf:about=""><dc:format>image/svg+xml</dc:format><dc:type
           rdf:resource="http://purl.org/dc/dcmitype/StillImage" /><dc:title></dc:title></cc:Work></rdf:RDF></metadata><defs
     id="defs6"><clipPath
       clipPathUnits="userSpaceOnUse"
       id="clipPath16"><path
         d="m 0,0 595.276,0 0,419.528 L 0,419.528 0,0 z"
         id="path18"
         inkscape:connector-curvature="0" /></clipPath></defs><sodipodi:namedview
     pagecolor="#ffffff"
     bordercolor="#666666"
     borderopacity="1"
     objecttolerance="10"
     gridtolerance="10"
     guidetolerance="10"
     inkscape:pageopacity="0"
     inkscape:pageshadow="2"
     inkscape:window-width="958"
     inkscape:window-height="538"
     id="namedview4"
     showgrid="false"
     fit-margin-top="0"
     fit-margin-left="0"
     fit-margin-right="0"
     fit-margin-bottom="0"
     inkscape:zoom="0.90005916"
     inkscape:cx="204.93567"
     inkscape:cy="154.76274"
     inkscape:window-x="2326"
     inkscape:window-y="0"
     inkscape:window-maximized="0"
     inkscape:current-layer="g10" /><g
     id="g10"
     inkscape:groupmode="layer"
     inkscape:label="rsaweb.original"
     transform="matrix(1.25,0,0,-1.25,-164.38975,343.71637)"><g
       id="g12"><g
         id="g14"
         clip-path="url(#clipPath16)"><g
           id="g20"
           transform="translate(235.3123,257.1317)"><path
             d="M 0,0 C 0.713,3.656 3.831,14.543 23.449,17.178 42.56,19.745 61.386,4.475 66.434,0 l 147.477,0 c 7.822,0 14.165,-6.341 14.165,-14.163 l 0,-65.505 c 0,-7.823 -6.343,-14.162 -14.165,-14.162 l -110.25,0 c 0.196,-0.217 0.287,-0.419 0.252,-0.604 -0.603,-3.316 -3.316,-14.769 -23.508,-17.478 -20.771,-2.792 -41.209,15.495 -43.98,18.082 l -125.687,0 c -7.822,0 -14.163,6.339 -14.163,14.162 l 0,65.505 c 0,7.822 6.341,14.163 14.163,14.163 L 0,0 z"
             style="fill:#ffffff;fill-opacity:1;fill-rule:nonzero;stroke:none"
             id="path22"
             inkscape:connector-curvature="0" /></g><g
           id="g24"
           transform="translate(440.2849,188.9125)"><path
             d="m 0,0 c -2.139,-2.071 -4.81,-3.111 -8.057,-3.111 l -27.451,0 0,38.012 c -0.096,7.007 6.132,10.952 11.215,10.905 l 13.169,0.047 c 3.987,0 6.961,-0.794 9.006,-2.841 2.06,-2.061 3.111,-4.794 3.111,-8.264 l 0,-4.867 c 0,-4.245 -2.004,-6.76 -6.111,-7.687 l -0.448,-0.101 0,-1.354 0.577,0 c 2.253,0 4.163,-0.766 5.745,-2.282 1.632,-1.436 2.458,-3.293 2.458,-5.604 l 0,-5.33 C 3.214,4.652 2.153,2.156 0,0 m -5.681,33.478 c 0,1.772 -0.618,3.287 -1.857,4.526 -1.172,1.251 -2.66,1.868 -4.433,1.868 l -10.365,0 c -1.769,0 -3.328,-0.629 -4.632,-1.856 -1.239,-1.238 -1.866,-2.766 -1.866,-4.538 l 0,-9.355 16.23,0 c 1.779,0 3.364,0.664 4.732,1.954 1.43,1.357 2.191,2.911 2.191,4.65 l 0,2.751 z m 2.218,-22.21 c 0,4.538 -2.329,6.922 -6.814,6.922 l -18.557,0 0,-15.369 18.026,0 c 2.057,0 3.791,0.724 5.174,2.186 1.448,1.447 2.171,3.211 2.171,5.264 l 0,0.997 z"
             style="fill:#96a0a5;fill-opacity:1;fill-rule:nonzero;stroke:none"
             id="path26"
             inkscape:connector-curvature="0" /></g><g
           id="g28"
           transform="translate(192.0174,186.6068)"><path
             d="m 0,0 -1.157,-0.524 c -0.425,-0.182 -0.837,-0.267 -1.247,-0.267 -0.968,0 -1.655,0.425 -2.127,1.368 l -9.912,19.918 -16.058,0 0,-18.769 c 0,-1.796 -0.8,-2.596 -2.599,-2.596 l -1.479,0 c -1.797,0 -2.596,0.8 -2.596,2.596 l 0,35.43 c -0.19,6.306 5.959,11.184 11.331,10.922 l 13.053,0.036 c 4.125,0 7.2,-1.131 9.316,-3.316 1.924,-1.986 2.905,-4.62 2.905,-7.954 l 0,-4.657 c 0,-4.843 -2.259,-8.351 -6.867,-10.586 L -7.96,21.346 0.888,3.554 C 1.14,3.05 1.25,2.61 1.25,2.227 1.25,1.069 0.82,0.384 0,0 m -7.242,35.795 c 0,1.772 -0.618,3.289 -1.856,4.526 -1.172,1.251 -2.66,1.87 -4.433,1.87 l -10.47,0 c -1.771,0 -3.33,-0.63 -4.634,-1.856 -1.238,-1.238 -1.866,-2.768 -1.866,-4.54 l 0,-9.366 16.334,0 c 1.78,0 3.367,0.662 4.733,1.954 1.433,1.356 2.192,2.911 2.192,4.649 l 0,2.763 z"
             style="fill:#ed1c24;fill-opacity:1;fill-rule:nonzero;stroke:none"
             id="path30"
             inkscape:connector-curvature="0" /></g><g
           id="g32"
           transform="translate(277.7854,200.7572)"><path
             d="m 0,0 -23.827,0 -5.611,-13.397 c -0.505,-1.14 -1.146,-1.556 -1.902,-1.556 -0.522,0 -0.894,0.064 -1.155,0.167 l -1.47,0.63 c -1.14,0.507 -1.557,1.148 -1.557,1.904 0,0.234 0.101,0.671 0.379,1.368 l 17.415,41.816 c 0.85,2.091 2.152,3.029 3.91,3.029 l 3.807,0 c 1.758,0 3.059,-0.936 3.908,-3.029 L 10.853,-9.823 c 8.301,-18.1 19.646,-24.548 27.261,-26.827 -11.285,1.11 -19.209,6.445 -24.532,11.994 -3.252,3.389 -5.536,6.864 -7.011,9.507 -1.478,2.648 -2.144,4.453 -2.175,4.523 L 0,0 z m -11.915,28.749 -9.429,-22.816 18.86,0 -9.431,22.816 z"
             style="fill:#ed1c24;fill-opacity:1;fill-rule:nonzero;stroke:none"
             id="path34"
             inkscape:connector-curvature="0" /></g><g
           id="g36"
           transform="translate(235.6023,188.7748)"><path
             d="m 0,0 c -1.849,-1.983 -4.332,-2.991 -7.51,-2.991 l -26.126,0 c -1.834,0 -2.595,0.767 -2.595,2.385 l 0,1.163 c 0,1.62 0.761,2.384 2.595,2.384 l 24.643,0 c 3.493,0 5.126,2.429 5.126,6.607 l 0,4.23 c 0,3.352 -1.774,5.124 -5.126,5.124 l -17.345,0 c -2.514,0 -4.771,0.952 -6.791,2.907 -1.999,1.93 -2.997,4.318 -2.997,7.201 l 0,6.556 c 0,2.368 0.949,4.594 2.912,6.695 2.288,2.487 5.132,3.729 8.569,3.729 l 20.836,0 c 1.924,0 2.702,-0.783 2.702,-2.384 l 0,-1.165 c 0,-1.62 -0.761,-2.385 -2.596,-2.385 l -19.144,0 c -4.276,0 -6.605,-1.996 -6.605,-5.972 l 0,-3.914 c 0,-1.507 0.606,-2.883 1.749,-4.102 1.185,-1.186 2.76,-1.76 4.643,-1.76 l 17.029,0 c 2.562,0 4.598,-0.739 6.169,-2.176 1.763,-1.634 2.669,-3.867 2.669,-6.769 l 0,-7.084 C 2.807,4.717 1.849,1.981 0,0"
             style="fill:#ed1c24;fill-opacity:1;fill-rule:nonzero;stroke:none"
             id="path38"
             inkscape:connector-curvature="0" /></g><g
           id="g40"
           transform="translate(392.3817,207.1879)"><path
             d="M 0,0 C -0.264,-0.038 -0.563,0.002 -0.832,0.002 L -20.288,0 c -3.554,-0.35 -5.441,-2.373 -5.441,-5.918 l 0,-3.709 c 0,-1.509 0.607,-2.886 1.747,-4.102 1.186,-1.186 2.759,-1.763 4.646,-1.763 l 20.593,0 c 1.286,0 2.563,-0.308 2.593,-2.362 -0.006,-0.389 0.02,-0.782 -0.012,-1.154 0.02,-1.424 -0.484,-2.385 -2.581,-2.385 l -23.874,0 c -2.514,0 -4.77,0.955 -6.791,2.907 -1.998,1.933 -2.994,4.321 -2.994,7.201 l 0,6.85 c 0,2.355 0.937,4.573 2.885,6.664 l 0.378,0.408 -0.392,0.394 c -1.916,1.909 -2.871,4.255 -2.871,7.076 l 0,7.054 c 0,2.365 0.946,4.595 2.912,6.694 2.285,2.487 5.13,3.728 8.566,3.728 l 22.075,0 c 1.922,0 2.702,-0.782 2.702,-2.385 l 0,-1.163 c 0,-1.62 -0.762,-2.385 -2.596,-2.385 l -20.382,0 c -4.274,0 -6.604,-1.998 -6.604,-5.97 l 0,-3.914 c 0,-1.509 0.607,-2.885 1.747,-4.102 0.908,-0.907 2.047,-1.465 3.383,-1.67 L 1.151,5.988 c 1.922,0 2.702,-0.783 2.702,-2.384 l 0,-1.165 C 3.853,0.818 3.146,0 1.31,0 L 0,0 z"
             style="fill:#96a0a5;fill-opacity:1;fill-rule:nonzero;stroke:none"
             id="path42"
             inkscape:connector-curvature="0" /></g><g
           id="g44"
           transform="translate(356.159,231.0795)"><path
             d="m 0,0 -12.938,-41.684 c -0.588,-2.484 -1.886,-3.594 -3.884,-3.594 l -3.914,0 c -2.057,0 -3.358,0.972 -3.993,3.07 l -8.793,33.05 -9.237,-33.038 c -0.709,-2.13 -1.989,-3.082 -3.888,-3.082 l -3.703,0 c -1.998,0 -3.301,1.119 -3.89,3.603 l -5.181,15.068 c -1.084,3.088 -2.261,6.369 -3.283,9.077 -2.162,5.728 -5.794,14.603 -5.794,14.603 -8.313,18.126 -19.677,24.566 -27.291,26.839 11.347,-1.088 19.403,-6.389 24.849,-11.906 3.323,-3.369 5.674,-6.817 7.202,-9.441 1.526,-2.624 4.136,-9.372 5.113,-12.063 l 1.105,-2.933 c 3.491,-9.884 8.19,-23.578 8.826,-26.666 l 0.542,-1.916 0.556,1.817 c 0.284,0.709 3.018,10.684 5.681,20.509 l 5.273,19.531 c 0.238,0.82 0.721,1.18 1.615,1.22 l 2.437,10e-4 c 0.381,-0.017 0.58,-0.052 0.782,-0.14 0.378,-0.161 0.853,-0.542 1.037,-1.468 0,0 10.011,-36.636 10.855,-39.595 l 0.542,-1.895 0.565,1.887 c 0.633,2.115 12.455,40.482 12.455,40.482 0.439,1.951 1.391,2.568 2.912,2.229 L -1.298,3.01 C 0.674,2.361 0.053,0.214 0,0"
             style="fill:#96a0a5;fill-opacity:1;fill-rule:nonzero;stroke:none"
             id="path46"
             inkscape:connector-curvature="0" /></g><g
           id="g48"
           transform="translate(311.3318,144.5541)"><path
             d="m 0,0 c -19.497,0 -37.825,16.582 -39.851,18.472 l -125.43,-0.1 c -8.017,0 -14.539,6.522 -14.539,14.537 l 0,65.505 c 0,8.017 6.522,14.539 14.539,14.539 l 88.955,0 c 1.177,5.521 5.848,14.776 23.706,17.175 1.443,0.193 2.934,0.291 4.434,0.291 17.668,0 34.203,-13.441 38.849,-17.56 l 147.229,0.094 c 8.018,0 14.54,-6.522 14.54,-14.539 l 0,-65.505 c 0,-8.015 -6.522,-14.537 -14.54,-14.537 l -109.629,0 c 0.017,-0.099 0.017,-0.199 0,-0.299 C 26.508,8.435 18.047,2.121 4.436,0.293 2.991,0.1 1.5,0 0,0 m -165.281,112.203 c -7.603,0 -13.789,-6.186 -13.789,-13.789 l 0,-65.505 c 0,-7.602 6.186,-13.787 13.789,-13.787 l 125.686,0 C -37.336,17.15 -19.21,0.75 0,0.75 c 1.468,0 2.927,0.097 4.336,0.287 13.263,1.778 21.498,7.878 23.188,17.174 0.006,0.035 -0.02,0.129 -0.161,0.284 l -0.568,0.627 111.097,0 c 7.602,0 13.79,6.185 13.79,13.787 l 0,65.505 c 0,7.603 -6.188,13.789 -13.79,13.789 l -147.478,0 c -4.846,4.17 -21.198,17.466 -38.6,17.466 -1.466,0 -2.924,-0.095 -4.335,-0.285 -17.724,-2.381 -22.1,-11.596 -23.131,-16.878 l -0.058,-0.303 -89.571,0 z"
             style="fill:#96a0a5;fill-opacity:1;fill-rule:nonzero;stroke:none"
             id="path50"
             inkscape:connector-curvature="0" /></g><g
           id="g52"
           transform="translate(470.249,250.8577)"><path
             d="m 0,0 -0.928,0 -1.104,2.205 -0.993,0 0,-2.205 -0.802,0 0,5.244 2.038,0 c 0.322,0 0.607,-0.065 0.855,-0.196 0.248,-0.132 0.44,-0.313 0.573,-0.543 0.133,-0.232 0.199,-0.497 0.199,-0.795 0,-0.36 -0.096,-0.66 -0.289,-0.901 C -0.645,2.566 -0.896,2.402 -1.205,2.316 L 0,0 z m -0.957,3.703 c 0,0.255 -0.081,0.456 -0.242,0.604 -0.162,0.147 -0.379,0.221 -0.65,0.221 l -1.176,0 0,-1.64 1.176,0 c 0.269,0 0.485,0.074 0.648,0.219 0.163,0.146 0.244,0.344 0.244,0.596"
             style="fill:#96a0a5;fill-opacity:1;fill-rule:nonzero;stroke:none"
             id="path54"
             inkscape:connector-curvature="0" /></g><g
           id="g56"
           transform="translate(468.0732,249.0521)"><path
             d="m 0,0 c -2.376,0 -4.31,1.933 -4.31,4.309 0,2.375 1.934,4.308 4.31,4.308 2.376,0 4.31,-1.933 4.31,-4.308 C 4.31,1.933 2.376,0 0,0 m 0,7.769 c -1.908,0 -3.461,-1.552 -3.461,-3.46 0,-1.908 1.553,-3.46 3.461,-3.46 1.909,0 3.462,1.552 3.462,3.46 0,1.908 -1.553,3.46 -3.462,3.46"
             style="fill:#96a0a5;fill-opacity:1;fill-rule:nonzero;stroke:none"
             id="path58"
             inkscape:connector-curvature="0" /></g></g></g></g></svg>